<svg id="visual" viewBox="0 0 900 450" width="900" height="450" xmlns="http://www.w3.org/2000/svg" xmlns:xlink="http://www.w3.org/1999/xlink" version="1.1"><rect x="0" y="0" width="900" height="450" fill="#0f172a"></rect><path d="M0 312L21.5 310.3C43 308.7 86 305.3 128.8 302.8C171.7 300.3 214.3 298.7 257.2 304.3C300 310 343 323 385.8 327.8C428.7 332.7 471.3 329.3 514.2 318.5C557 307.7 600 289.3 642.8 283.7C685.7 278 728.3 285 771.2 295.3C814 305.7 857 319.3 878.5 326.2L900 333L900 451L878.5 451C857 451 814 451 771.2 451C728.3 451 685.7 451 642.8 451C600 451 557 451 514.2 451C471.3 451 428.7 451 385.8 451C343 451 300 451 257.2 451C214.3 451 171.7 451 128.8 451C86 451 43 451 21.5 451L0 451Z" fill="#1e3a8a"></path><path d="M0 311L21.5 311.3C43 311.7 86 312.3 128.8 317C171.7 321.7 214.3 330.3 257.2 329.3C300 328.3 343 317.7 385.8 313.8C428.7 310 471.3 313 514.2 319.5C557 326 600 336 642.8 339.5C685.7 343 728.3 340 771.2 340.2C814 340.3 857 343.7 878.5 345.3L900 347L900 451L878.5 451C857 451 814 451 771.2 451C728.3 451 685.7 451 642.8 451C600 451 557 451 514.2 451C471.3 451 428.7 451 385.8 451C343 451 300 451 257.2 451C214.3 451 171.7 451 128.8 451C86 451 43 451 21.5 451L0 451Z" fill="#2144a1"></path><path d="M0 353L21.5 349C43 345 86 337 128.8 340.2C171.7 343.3 214.3 357.7 257.2 359C300 360.3 343 348.7 385.8 348.7C428.7 348.7 471.3 360.3 514.2 366.3C557 372.3 600 372.7 642.8 370.5C685.7 368.3 728.3 363.7 771.2 357.3C814 351 857 343 878.5 339L900 335L900 451L878.5 451C857 451 814 451 771.2 451C728.3 451 685.7 451 642.8 451C600 451 557 451 514.2 451C471.3 451 428.7 451 385.8 451C343 451 300 451 257.2 451C214.3 451 171.7 451 128.8 451C86 451 43 451 21.5 451L0 451Z" fill="#234eb9"></path><path d="M0 405L21.5 399.5C43 394 86 383 128.8 377.2C171.7 371.3 214.3 370.7 257.2 370.5C300 370.3 343 370.7 385.8 375.8C428.7 381 471.3 391 514.2 394.2C557 397.3 600 393.7 642.8 391.5C685.7 389.3 728.3 388.7 771.2 386C814 383.3 857 378.7 878.5 376.3L900 374L900 451L878.5 451C857 451 814 451 771.2 451C728.3 451 685.7 451 642.8 451C600 451 557 451 514.2 451C471.3 451 428.7 451 385.8 451C343 451 300 451 257.2 451C214.3 451 171.7 451 128.8 451C86 451 43 451 21.5 451L0 451Z" fill="#2458d2"></path><path d="M0 428L21.5 427.7C43 427.3 86 426.7 128.8 424.2C171.7 421.7 214.3 417.3 257.2 412.5C300 407.7 343 402.3 385.8 404C428.7 405.7 471.3 414.3 514.2 416.2C557 418 600 413 642.8 412C685.7 411 728.3 414 771.2 414.7C814 415.3 857 413.7 878.5 412.8L900 412L900 451L878.5 451C857 451 814 451 771.2 451C728.3 451 685.7 451 642.8 451C600 451 557 451 514.2 451C471.3 451 428.7 451 385.8 451C343 451 300 451 257.2 451C214.3 451 171.7 451 128.8 451C86 451 43 451 21.5 451L0 451Z" fill="#2563eb"></path></svg>